<mxfile host="app.diagrams.net" modified="2024-07-04T01:57:19.270Z" agent="Mozilla/5.0 (Macintosh; Intel Mac OS X 10_15_7) AppleWebKit/537.36 (KHTML, like Gecko) Chrome/126.0.0.0 Safari/537.36" etag="PqCIKz6RRHj_P6uiK2GB" version="24.6.4" type="github">
  <diagram name="Page-1" id="nr3PooYt9fazMYct6w1c">
    <mxGraphModel dx="3365" dy="2160" grid="1" gridSize="10" guides="1" tooltips="1" connect="1" arrows="1" fold="1" page="1" pageScale="1" pageWidth="850" pageHeight="1100" math="0" shadow="0">
      <root>
        <mxCell id="0" />
        <mxCell id="1" parent="0" />
        <mxCell id="wGlS6vLJdemvs8XFUy1Y-4" value="" style="swimlane;startSize=0;" vertex="1" parent="1">
          <mxGeometry x="156.5" y="200" width="120" height="120" as="geometry" />
        </mxCell>
        <mxCell id="wGlS6vLJdemvs8XFUy1Y-5" value="&lt;div&gt;&lt;font style=&quot;font-size: 18px;&quot;&gt;Publisher&lt;br&gt;Service&lt;/font&gt;&lt;/div&gt;" style="text;html=1;align=center;verticalAlign=middle;resizable=0;points=[];autosize=1;strokeColor=none;fillColor=none;" vertex="1" parent="wGlS6vLJdemvs8XFUy1Y-4">
          <mxGeometry x="10" y="30" width="100" height="60" as="geometry" />
        </mxCell>
        <mxCell id="wGlS6vLJdemvs8XFUy1Y-6" value="DB&lt;div&gt;&lt;br&gt;&lt;/div&gt;" style="shape=cylinder3;whiteSpace=wrap;html=1;boundedLbl=1;backgroundOutline=1;size=15;" vertex="1" parent="wGlS6vLJdemvs8XFUy1Y-4">
          <mxGeometry x="60" y="-60" width="60" height="80" as="geometry" />
        </mxCell>
        <mxCell id="wGlS6vLJdemvs8XFUy1Y-60" style="edgeStyle=orthogonalEdgeStyle;rounded=0;orthogonalLoop=1;jettySize=auto;html=1;" edge="1" parent="1" source="wGlS6vLJdemvs8XFUy1Y-9">
          <mxGeometry relative="1" as="geometry">
            <mxPoint x="655" y="430" as="targetPoint" />
          </mxGeometry>
        </mxCell>
        <mxCell id="wGlS6vLJdemvs8XFUy1Y-9" value="" style="swimlane;startSize=0;" vertex="1" parent="1">
          <mxGeometry x="606.5" y="200" width="105" height="120" as="geometry" />
        </mxCell>
        <mxCell id="wGlS6vLJdemvs8XFUy1Y-10" value="&lt;div&gt;&lt;font style=&quot;font-size: 18px;&quot;&gt;Nottification&lt;br&gt;Orchestrator&lt;/font&gt;&lt;/div&gt;" style="text;html=1;align=center;verticalAlign=middle;resizable=0;points=[];autosize=1;strokeColor=none;fillColor=none;" vertex="1" parent="wGlS6vLJdemvs8XFUy1Y-9">
          <mxGeometry x="-7.5" y="29" width="120" height="60" as="geometry" />
        </mxCell>
        <mxCell id="wGlS6vLJdemvs8XFUy1Y-11" value="DB&lt;div&gt;&lt;br&gt;&lt;/div&gt;" style="shape=cylinder3;whiteSpace=wrap;html=1;boundedLbl=1;backgroundOutline=1;size=15;" vertex="1" parent="1">
          <mxGeometry x="676.5" y="150" width="60" height="80" as="geometry" />
        </mxCell>
        <mxCell id="wGlS6vLJdemvs8XFUy1Y-13" style="edgeStyle=orthogonalEdgeStyle;rounded=0;orthogonalLoop=1;jettySize=auto;html=1;entryX=0;entryY=0.5;entryDx=0;entryDy=0;entryPerimeter=0;" edge="1" parent="1" source="wGlS6vLJdemvs8XFUy1Y-4" target="wGlS6vLJdemvs8XFUy1Y-37">
          <mxGeometry relative="1" as="geometry">
            <mxPoint x="361.5" y="259.5" as="targetPoint" />
          </mxGeometry>
        </mxCell>
        <mxCell id="wGlS6vLJdemvs8XFUy1Y-26" style="edgeStyle=orthogonalEdgeStyle;rounded=0;orthogonalLoop=1;jettySize=auto;html=1;entryX=1;entryY=0.5;entryDx=0;entryDy=0;" edge="1" parent="1" source="wGlS6vLJdemvs8XFUy1Y-20" target="wGlS6vLJdemvs8XFUy1Y-23">
          <mxGeometry relative="1" as="geometry" />
        </mxCell>
        <mxCell id="wGlS6vLJdemvs8XFUy1Y-47" style="edgeStyle=orthogonalEdgeStyle;rounded=0;orthogonalLoop=1;jettySize=auto;html=1;" edge="1" parent="1" source="wGlS6vLJdemvs8XFUy1Y-20" target="wGlS6vLJdemvs8XFUy1Y-34">
          <mxGeometry relative="1" as="geometry">
            <Array as="points">
              <mxPoint x="330" y="630" />
              <mxPoint x="655" y="630" />
            </Array>
          </mxGeometry>
        </mxCell>
        <mxCell id="wGlS6vLJdemvs8XFUy1Y-20" value="" style="sketch=0;points=[[0,0,0],[0.25,0,0],[0.5,0,0],[0.75,0,0],[1,0,0],[0,1,0],[0.25,1,0],[0.5,1,0],[0.75,1,0],[1,1,0],[0,0.25,0],[0,0.5,0],[0,0.75,0],[1,0.25,0],[1,0.5,0],[1,0.75,0]];outlineConnect=0;fontColor=#232F3E;fillColor=#ED7100;strokeColor=#ffffff;dashed=0;verticalLabelPosition=bottom;verticalAlign=top;align=center;html=1;fontSize=12;fontStyle=0;aspect=fixed;shape=mxgraph.aws4.resourceIcon;resIcon=mxgraph.aws4.lambda;" vertex="1" parent="1">
          <mxGeometry x="270" y="451" width="70" height="70" as="geometry" />
        </mxCell>
        <mxCell id="wGlS6vLJdemvs8XFUy1Y-22" style="edgeStyle=orthogonalEdgeStyle;rounded=0;orthogonalLoop=1;jettySize=auto;html=1;" edge="1" parent="1" source="wGlS6vLJdemvs8XFUy1Y-21" target="wGlS6vLJdemvs8XFUy1Y-20">
          <mxGeometry relative="1" as="geometry" />
        </mxCell>
        <mxCell id="wGlS6vLJdemvs8XFUy1Y-21" value="Amazon SNS" style="sketch=0;outlineConnect=0;fontColor=#232F3E;gradientColor=none;strokeColor=#ffffff;fillColor=#232F3E;dashed=0;verticalLabelPosition=middle;verticalAlign=bottom;align=center;html=1;whiteSpace=wrap;fontSize=10;fontStyle=1;spacing=3;shape=mxgraph.aws4.productIcon;prIcon=mxgraph.aws4.sns;" vertex="1" parent="1">
          <mxGeometry x="625" y="440" width="80" height="100" as="geometry" />
        </mxCell>
        <mxCell id="wGlS6vLJdemvs8XFUy1Y-53" style="edgeStyle=orthogonalEdgeStyle;rounded=0;orthogonalLoop=1;jettySize=auto;html=1;" edge="1" parent="1" source="wGlS6vLJdemvs8XFUy1Y-23">
          <mxGeometry relative="1" as="geometry">
            <mxPoint x="260" y="730" as="targetPoint" />
            <Array as="points">
              <mxPoint x="-45" y="580" />
              <mxPoint x="261" y="580" />
            </Array>
          </mxGeometry>
        </mxCell>
        <mxCell id="wGlS6vLJdemvs8XFUy1Y-23" value="" style="strokeColor=#dddddd;shadow=1;strokeWidth=1;rounded=1;absoluteArcSize=1;arcSize=2;" vertex="1" parent="1">
          <mxGeometry x="-120" y="460" width="150" height="60" as="geometry" />
        </mxCell>
        <mxCell id="wGlS6vLJdemvs8XFUy1Y-24" value="&lt;font color=&quot;#000000&quot;&gt;MGI APIGEE&lt;/font&gt;&lt;br&gt;&lt;div&gt;&lt;font color=&quot;#000000&quot;&gt;&lt;br&gt;&lt;/font&gt;&lt;/div&gt;" style="editableCssRules=.*;html=1;fontColor=#999999;shape=image;verticalLabelPosition=middle;verticalAlign=middle;labelPosition=right;align=left;spacingLeft=20;part=1;points=[];imageAspect=0;image=data:image/svg+xml,PHN2ZyB4bWxucz0iaHR0cDovL3d3dy53My5vcmcvMjAwMC9zdmciIHhtbG5zOnY9Imh0dHBzOi8vdmVjdGEuaW8vbmFubyIgd2lkdGg9IjIwLjAwMDMyOTk3MTMxMzQ3NyIgaGVpZ2h0PSIyMC4wMDAxNjQwMzE5ODI0MjIiIHZpZXdCb3g9Ii0wLjAwMDE2NDgyMzAwOTk4MTc3MzggLTAuMDAwMTY0ODgzMTA5MzkxNjY2OTUgMjAuMDAwMzI5OTcxMzEzNDc3IDIwLjAwMDE2NDAzMTk4MjQyMiI+JiN4YTsJPHN0eWxlIHR5cGU9InRleHQvY3NzIj4mI3hhOwkuc3Qwe2ZpbGw6IzQyODVmNH0mI3hhOwkuc3Qxe2ZpbGw6IzY2OWRmNn0mI3hhOwkuc3Qye2ZpbGw6I2FlY2JmYX0mI3hhOwk8L3N0eWxlPiYjeGE7CTxwYXRoIGNsYXNzPSJzdDAiIGQ9Ik0xOS40MiA3bC0uMzUtLjA5TDE4IDYuNjRsLS4wOS0uMTljLS4wNS0uMDktLjA5LS4xOS0uMTQtLjI5bC0uMTQtLjI3LS4xNi0uMjgtLjE2LS4yNi0uMTctLjI2YTIuMzUgMi4zNSAwIDAgMC0uMTktLjI1bC0uMTktLjI1LS4yLS4yNC0uMi0uMjMtLjI2LS4yMi0uMjItLjIyLS4yNC0uMi0uMjMtLjItLjI1LS4xOS0uMjUtLjE5LS4yNi0uMTctLjI2LS4xNi0uMjgtLjE2LS4yNy0uMTQtLjI5LS4xNC0uMTktLjA4LS4yOS0xLjEyTDEzIC41OGEuNzguNzggMCAwIDAtLjc3LS41OEg3Ljc3QS43OC43OCAwIDAgMCA3IC41OGwtLjA5LjM1LS4yNyAxLjEyLS4xOS4wOC0uMjkuMTQtLjI3LjE0LS4yOC4xNi0uMjYuMTYtLjI2LjE3LS4yNS4xOS0uMjUuMTktLjI0LjItLjIzLjItLjIyLjIyLS4yMi4yMi0uMi4yNGEyLjIgMi4yIDAgMCAwLS4yLjIzYy0uMDcuMDgtLjEzLjE3LS4xOS4yNWEyLjM1IDIuMzUgMCAwIDAtLjE5LjI1bC0uMTcuMjYtLjE2LjI2LS4xNi4yOGMwIC4wOS0uMS4xOC0uMTQuMjdsLS4xNC4yOWMtLjA1LjA5LS4wNi4xMy0uMDguMTlsLTEuMTIuMjlMLjU4IDdhLjc4Ljc4IDAgMCAwLS41OC43N3Y0LjQ2YS43OC43OCAwIDAgMCAuNTguNzVsLjM1LjA5IDEuMTIuMjljMCAuMDYuMDYuMTIuMDguMTlzLjA5LjE5LjE0LjI5bC4xNC4yNy4xNi4yOC4xNi4yNi4xNy4yNmEyLjM1IDIuMzUgMCAwIDAgLjE5LjI1bC4xOS4yNWEyLjIgMi4yIDAgMCAwIC4yLjIzbC4yLjI0LjIyLjIyLjIyLjIyLjI0LjIuMjMuMi4yNS4xOS4yNS4xOS4yNi4xNy4yNi4xNi4yOC4xNi4yNy4xNC4yOS4xNC4xOS4wOC4yOSAxLjEyLjA5LjM1YS43OC43OCAwIDAgMCAuNzUuNThoNC40NmEuNzguNzggMCAwIDAgLjc1LS41OGwuMDktLjM1LjI5LTEuMDcuMTktLjA4LjI5LS4xNC4yNy0uMTQuMjgtLjE2LjI2LS4xNi4yNi0uMTcuMjUtLjE5LjI1LS4xOS4yNC0uMi4yMy0uMi4yMi0uMjIuMjItLjIyLjItLjI0YTIuMiAyLjIgMCAwIDAgLjItLjIzYy4wNy0uMDguMTMtLjE3LjE5LS4yNWEyLjM1IDIuMzUgMCAwIDAgLjE5LS4yNWwuMTctLjI2LjE2LS4yNi4xNi0uMjguMTQtLjI3LjE0LS4yOWMuMDUtLjA5LjA2LS4xMy4wOC0uMTlsMS4xMi0uMjkuMzUtLjA5YS43OC43OCAwIDAgMCAuNTgtLjc1VjcuNzdhLjc4Ljc4IDAgMCAwLS41OC0uNzd6TTEwIDE2LjY3QTYuNjYgNi42NiAwIDEgMSAxNi42NyAxMGE2LjUzIDYuNTMgMCAwIDEtLjE0IDEuMzNBNi42NCA2LjY0IDAgMCAxIDEwIDE2LjY3eiIvPiYjeGE7CTxwYXRoIGNsYXNzPSJzdDEiIGQ9Ik0xMCA0Ljg4QTUuMTcgNS4xNyAwIDAgMCA4Ljg5IDVsLjI3IDEuMjNhMy44NiAzLjg2IDAgMSAxLTIuOTMgNC42MSA0IDQgMCAwIDEtLjA5LS44NEg0Ljg4QTUuMTIgNS4xMiAwIDEgMCAxMCA0Ljg4eiIvPiYjeGE7CTxwYXRoIGNsYXNzPSJzdDIiIGQ9Ik0xMCA3LjQyYTIuNiAyLjYgMCAwIDAtLjU2LjA2bC4yNyAxLjI0YTEuMzIgMS4zMiAwIDEgMS0xIDEuNTcgMS40MyAxLjQzIDAgMCAxIDAtLjI5SDcuNDJBMi41OCAyLjU4IDAgMSAwIDEwIDcuNDJ6Ii8+JiN4YTs8L3N2Zz4=;" vertex="1" parent="wGlS6vLJdemvs8XFUy1Y-23">
          <mxGeometry width="30" height="30" relative="1" as="geometry">
            <mxPoint x="15" y="15" as="offset" />
          </mxGeometry>
        </mxCell>
        <mxCell id="wGlS6vLJdemvs8XFUy1Y-27" value="" style="swimlane;startSize=0;" vertex="1" parent="1">
          <mxGeometry x="250" y="740" width="120" height="120" as="geometry" />
        </mxCell>
        <mxCell id="wGlS6vLJdemvs8XFUy1Y-28" value="&lt;div&gt;Partner Mock Data&lt;/div&gt;&lt;div&gt;&lt;br&gt;&lt;/div&gt;" style="text;html=1;align=center;verticalAlign=middle;resizable=0;points=[];autosize=1;strokeColor=none;fillColor=none;" vertex="1" parent="wGlS6vLJdemvs8XFUy1Y-27">
          <mxGeometry y="30" width="120" height="40" as="geometry" />
        </mxCell>
        <mxCell id="wGlS6vLJdemvs8XFUy1Y-29" value="DB&lt;div&gt;&lt;br&gt;&lt;/div&gt;" style="shape=cylinder3;whiteSpace=wrap;html=1;boundedLbl=1;backgroundOutline=1;size=15;" vertex="1" parent="wGlS6vLJdemvs8XFUy1Y-27">
          <mxGeometry x="60" y="-60" width="60" height="80" as="geometry" />
        </mxCell>
        <mxCell id="wGlS6vLJdemvs8XFUy1Y-31" value="" style="swimlane;startSize=0;" vertex="1" parent="1">
          <mxGeometry x="-120" y="720" width="185" height="120" as="geometry" />
        </mxCell>
        <mxCell id="wGlS6vLJdemvs8XFUy1Y-32" value="&lt;div&gt;Partner Undelivered Events&lt;/div&gt;&lt;div&gt;&lt;br&gt;&lt;/div&gt;" style="text;html=1;align=center;verticalAlign=middle;resizable=0;points=[];autosize=1;strokeColor=none;fillColor=none;" vertex="1" parent="wGlS6vLJdemvs8XFUy1Y-31">
          <mxGeometry y="40" width="170" height="40" as="geometry" />
        </mxCell>
        <mxCell id="wGlS6vLJdemvs8XFUy1Y-33" value="DB&lt;div&gt;&lt;br&gt;&lt;/div&gt;" style="shape=cylinder3;whiteSpace=wrap;html=1;boundedLbl=1;backgroundOutline=1;size=15;" vertex="1" parent="wGlS6vLJdemvs8XFUy1Y-31">
          <mxGeometry x="130" y="-40" width="60" height="80" as="geometry" />
        </mxCell>
        <mxCell id="wGlS6vLJdemvs8XFUy1Y-34" value="" style="sketch=0;outlineConnect=0;fontColor=#232F3E;gradientColor=none;fillColor=#7AA116;strokeColor=none;dashed=0;verticalLabelPosition=bottom;verticalAlign=top;align=center;html=1;fontSize=12;fontStyle=0;aspect=fixed;pointerEvents=1;shape=mxgraph.aws4.bucket;" vertex="1" parent="1">
          <mxGeometry x="613.5" y="736.8399999999999" width="83" height="86.32" as="geometry" />
        </mxCell>
        <mxCell id="wGlS6vLJdemvs8XFUy1Y-36" value="" style="sketch=0;points=[[0,0,0],[0.25,0,0],[0.5,0,0],[0.75,0,0],[1,0,0],[0,1,0],[0.25,1,0],[0.5,1,0],[0.75,1,0],[1,1,0],[0,0.25,0],[0,0.5,0],[0,0.75,0],[1,0.25,0],[1,0.5,0],[1,0.75,0]];outlineConnect=0;fontColor=#232F3E;fillColor=#8C4FFF;strokeColor=#ffffff;dashed=0;verticalLabelPosition=bottom;verticalAlign=top;align=center;html=1;fontSize=12;fontStyle=0;aspect=fixed;shape=mxgraph.aws4.resourceIcon;resIcon=mxgraph.aws4.managed_streaming_for_kafka;" vertex="1" parent="1">
          <mxGeometry x="-70" y="216" width="78" height="78" as="geometry" />
        </mxCell>
        <mxCell id="wGlS6vLJdemvs8XFUy1Y-39" style="edgeStyle=orthogonalEdgeStyle;rounded=0;orthogonalLoop=1;jettySize=auto;html=1;entryX=0;entryY=0.5;entryDx=0;entryDy=0;" edge="1" parent="1" source="wGlS6vLJdemvs8XFUy1Y-37" target="wGlS6vLJdemvs8XFUy1Y-9">
          <mxGeometry relative="1" as="geometry" />
        </mxCell>
        <mxCell id="wGlS6vLJdemvs8XFUy1Y-37" value="" style="sketch=0;points=[[0,0,0],[0.25,0,0],[0.5,0,0],[0.75,0,0],[1,0,0],[0,1,0],[0.25,1,0],[0.5,1,0],[0.75,1,0],[1,1,0],[0,0.25,0],[0,0.5,0],[0,0.75,0],[1,0.25,0],[1,0.5,0],[1,0.75,0]];outlineConnect=0;fontColor=#232F3E;fillColor=#8C4FFF;strokeColor=#ffffff;dashed=0;verticalLabelPosition=bottom;verticalAlign=top;align=center;html=1;fontSize=12;fontStyle=0;aspect=fixed;shape=mxgraph.aws4.resourceIcon;resIcon=mxgraph.aws4.managed_streaming_for_kafka;" vertex="1" parent="1">
          <mxGeometry x="382.5" y="220" width="78" height="78" as="geometry" />
        </mxCell>
        <mxCell id="wGlS6vLJdemvs8XFUy1Y-40" value="" style="endArrow=none;dashed=1;html=1;dashPattern=1 3;strokeWidth=2;rounded=0;" edge="1" parent="1">
          <mxGeometry width="50" height="50" relative="1" as="geometry">
            <mxPoint x="-310" y="850" as="sourcePoint" />
            <mxPoint x="-310" y="160" as="targetPoint" />
            <Array as="points">
              <mxPoint x="-310" y="650" />
              <mxPoint x="-310" y="440" />
            </Array>
          </mxGeometry>
        </mxCell>
        <mxCell id="wGlS6vLJdemvs8XFUy1Y-41" value="" style="image;aspect=fixed;perimeter=ellipsePerimeter;html=1;align=center;shadow=0;dashed=0;spacingTop=3;image=img/lib/active_directory/laptop_client.svg;" vertex="1" parent="1">
          <mxGeometry x="-450" y="451" width="45" height="50" as="geometry" />
        </mxCell>
        <mxCell id="wGlS6vLJdemvs8XFUy1Y-44" style="edgeStyle=orthogonalEdgeStyle;rounded=0;orthogonalLoop=1;jettySize=auto;html=1;entryX=0.351;entryY=-0.017;entryDx=0;entryDy=0;entryPerimeter=0;" edge="1" parent="1" source="wGlS6vLJdemvs8XFUy1Y-23" target="wGlS6vLJdemvs8XFUy1Y-31">
          <mxGeometry relative="1" as="geometry" />
        </mxCell>
        <mxCell id="wGlS6vLJdemvs8XFUy1Y-45" style="edgeStyle=orthogonalEdgeStyle;rounded=0;orthogonalLoop=1;jettySize=auto;html=1;entryX=-0.033;entryY=0.45;entryDx=0;entryDy=0;entryPerimeter=0;" edge="1" parent="1" source="wGlS6vLJdemvs8XFUy1Y-36" target="wGlS6vLJdemvs8XFUy1Y-4">
          <mxGeometry relative="1" as="geometry" />
        </mxCell>
        <mxCell id="wGlS6vLJdemvs8XFUy1Y-48" style="edgeStyle=orthogonalEdgeStyle;rounded=0;orthogonalLoop=1;jettySize=auto;html=1;entryX=1;entryY=0.75;entryDx=0;entryDy=0;" edge="1" parent="1" source="wGlS6vLJdemvs8XFUy1Y-24" target="wGlS6vLJdemvs8XFUy1Y-41">
          <mxGeometry relative="1" as="geometry" />
        </mxCell>
        <mxCell id="wGlS6vLJdemvs8XFUy1Y-52" value="Undelivered Events" style="text;html=1;align=center;verticalAlign=middle;whiteSpace=wrap;rounded=0;" vertex="1" parent="1">
          <mxGeometry x="-120" y="640" width="60" height="30" as="geometry" />
        </mxCell>
        <mxCell id="wGlS6vLJdemvs8XFUy1Y-54" value="Testing Client" style="text;html=1;align=center;verticalAlign=middle;whiteSpace=wrap;rounded=0;" vertex="1" parent="1">
          <mxGeometry x="90" y="550" width="60" height="30" as="geometry" />
        </mxCell>
        <mxCell id="wGlS6vLJdemvs8XFUy1Y-55" value="" style="strokeColor=#dddddd;shadow=1;strokeWidth=1;rounded=1;absoluteArcSize=1;arcSize=2;" vertex="1" parent="1">
          <mxGeometry x="-300" y="750" width="120" height="60" as="geometry" />
        </mxCell>
        <mxCell id="wGlS6vLJdemvs8XFUy1Y-56" value="&lt;font color=&quot;#000000&quot;&gt;MGI&amp;nbsp;&lt;/font&gt;&lt;div&gt;&lt;font color=&quot;#000000&quot;&gt;APIGEE&lt;/font&gt;&lt;br&gt;&lt;div&gt;&lt;font color=&quot;#000000&quot;&gt;&lt;br&gt;&lt;/font&gt;&lt;/div&gt;&lt;/div&gt;" style="editableCssRules=.*;html=1;fontColor=#999999;shape=image;verticalLabelPosition=middle;verticalAlign=middle;labelPosition=right;align=left;spacingLeft=20;part=1;points=[];imageAspect=0;image=data:image/svg+xml,PHN2ZyB4bWxucz0iaHR0cDovL3d3dy53My5vcmcvMjAwMC9zdmciIHhtbG5zOnY9Imh0dHBzOi8vdmVjdGEuaW8vbmFubyIgd2lkdGg9IjIwLjAwMDMyOTk3MTMxMzQ3NyIgaGVpZ2h0PSIyMC4wMDAxNjQwMzE5ODI0MjIiIHZpZXdCb3g9Ii0wLjAwMDE2NDgyMzAwOTk4MTc3MzggLTAuMDAwMTY0ODgzMTA5MzkxNjY2OTUgMjAuMDAwMzI5OTcxMzEzNDc3IDIwLjAwMDE2NDAzMTk4MjQyMiI+JiN4YTsJPHN0eWxlIHR5cGU9InRleHQvY3NzIj4mI3hhOwkuc3Qwe2ZpbGw6IzQyODVmNH0mI3hhOwkuc3Qxe2ZpbGw6IzY2OWRmNn0mI3hhOwkuc3Qye2ZpbGw6I2FlY2JmYX0mI3hhOwk8L3N0eWxlPiYjeGE7CTxwYXRoIGNsYXNzPSJzdDAiIGQ9Ik0xOS40MiA3bC0uMzUtLjA5TDE4IDYuNjRsLS4wOS0uMTljLS4wNS0uMDktLjA5LS4xOS0uMTQtLjI5bC0uMTQtLjI3LS4xNi0uMjgtLjE2LS4yNi0uMTctLjI2YTIuMzUgMi4zNSAwIDAgMC0uMTktLjI1bC0uMTktLjI1LS4yLS4yNC0uMi0uMjMtLjI2LS4yMi0uMjItLjIyLS4yNC0uMi0uMjMtLjItLjI1LS4xOS0uMjUtLjE5LS4yNi0uMTctLjI2LS4xNi0uMjgtLjE2LS4yNy0uMTQtLjI5LS4xNC0uMTktLjA4LS4yOS0xLjEyTDEzIC41OGEuNzguNzggMCAwIDAtLjc3LS41OEg3Ljc3QS43OC43OCAwIDAgMCA3IC41OGwtLjA5LjM1LS4yNyAxLjEyLS4xOS4wOC0uMjkuMTQtLjI3LjE0LS4yOC4xNi0uMjYuMTYtLjI2LjE3LS4yNS4xOS0uMjUuMTktLjI0LjItLjIzLjItLjIyLjIyLS4yMi4yMi0uMi4yNGEyLjIgMi4yIDAgMCAwLS4yLjIzYy0uMDcuMDgtLjEzLjE3LS4xOS4yNWEyLjM1IDIuMzUgMCAwIDAtLjE5LjI1bC0uMTcuMjYtLjE2LjI2LS4xNi4yOGMwIC4wOS0uMS4xOC0uMTQuMjdsLS4xNC4yOWMtLjA1LjA5LS4wNi4xMy0uMDguMTlsLTEuMTIuMjlMLjU4IDdhLjc4Ljc4IDAgMCAwLS41OC43N3Y0LjQ2YS43OC43OCAwIDAgMCAuNTguNzVsLjM1LjA5IDEuMTIuMjljMCAuMDYuMDYuMTIuMDguMTlzLjA5LjE5LjE0LjI5bC4xNC4yNy4xNi4yOC4xNi4yNi4xNy4yNmEyLjM1IDIuMzUgMCAwIDAgLjE5LjI1bC4xOS4yNWEyLjIgMi4yIDAgMCAwIC4yLjIzbC4yLjI0LjIyLjIyLjIyLjIyLjI0LjIuMjMuMi4yNS4xOS4yNS4xOS4yNi4xNy4yNi4xNi4yOC4xNi4yNy4xNC4yOS4xNC4xOS4wOC4yOSAxLjEyLjA5LjM1YS43OC43OCAwIDAgMCAuNzUuNThoNC40NmEuNzguNzggMCAwIDAgLjc1LS41OGwuMDktLjM1LjI5LTEuMDcuMTktLjA4LjI5LS4xNC4yNy0uMTQuMjgtLjE2LjI2LS4xNi4yNi0uMTcuMjUtLjE5LjI1LS4xOS4yNC0uMi4yMy0uMi4yMi0uMjIuMjItLjIyLjItLjI0YTIuMiAyLjIgMCAwIDAgLjItLjIzYy4wNy0uMDguMTMtLjE3LjE5LS4yNWEyLjM1IDIuMzUgMCAwIDAgLjE5LS4yNWwuMTctLjI2LjE2LS4yNi4xNi0uMjguMTQtLjI3LjE0LS4yOWMuMDUtLjA5LjA2LS4xMy4wOC0uMTlsMS4xMi0uMjkuMzUtLjA5YS43OC43OCAwIDAgMCAuNTgtLjc1VjcuNzdhLjc4Ljc4IDAgMCAwLS41OC0uNzd6TTEwIDE2LjY3QTYuNjYgNi42NiAwIDEgMSAxNi42NyAxMGE2LjUzIDYuNTMgMCAwIDEtLjE0IDEuMzNBNi42NCA2LjY0IDAgMCAxIDEwIDE2LjY3eiIvPiYjeGE7CTxwYXRoIGNsYXNzPSJzdDEiIGQ9Ik0xMCA0Ljg4QTUuMTcgNS4xNyAwIDAgMCA4Ljg5IDVsLjI3IDEuMjNhMy44NiAzLjg2IDAgMSAxLTIuOTMgNC42MSA0IDQgMCAwIDEtLjA5LS44NEg0Ljg4QTUuMTIgNS4xMiAwIDEgMCAxMCA0Ljg4eiIvPiYjeGE7CTxwYXRoIGNsYXNzPSJzdDIiIGQ9Ik0xMCA3LjQyYTIuNiAyLjYgMCAwIDAtLjU2LjA2bC4yNyAxLjI0YTEuMzIgMS4zMiAwIDEgMS0xIDEuNTcgMS40MyAxLjQzIDAgMCAxIDAtLjI5SDcuNDJBMi41OCAyLjU4IDAgMSAwIDEwIDcuNDJ6Ii8+JiN4YTs8L3N2Zz4=;" vertex="1" parent="wGlS6vLJdemvs8XFUy1Y-55">
          <mxGeometry width="30" height="30" relative="1" as="geometry">
            <mxPoint x="15" y="15" as="offset" />
          </mxGeometry>
        </mxCell>
        <mxCell id="wGlS6vLJdemvs8XFUy1Y-58" style="edgeStyle=orthogonalEdgeStyle;rounded=0;orthogonalLoop=1;jettySize=auto;html=1;" edge="1" parent="1" source="wGlS6vLJdemvs8XFUy1Y-57" target="wGlS6vLJdemvs8XFUy1Y-55">
          <mxGeometry relative="1" as="geometry" />
        </mxCell>
        <mxCell id="wGlS6vLJdemvs8XFUy1Y-57" value="" style="image;aspect=fixed;perimeter=ellipsePerimeter;html=1;align=center;shadow=0;dashed=0;spacingTop=3;image=img/lib/active_directory/laptop_client.svg;" vertex="1" parent="1">
          <mxGeometry x="-495" y="755" width="45" height="50" as="geometry" />
        </mxCell>
        <mxCell id="wGlS6vLJdemvs8XFUy1Y-59" style="edgeStyle=orthogonalEdgeStyle;rounded=0;orthogonalLoop=1;jettySize=auto;html=1;entryX=0.006;entryY=0.525;entryDx=0;entryDy=0;entryPerimeter=0;" edge="1" parent="1" source="wGlS6vLJdemvs8XFUy1Y-55" target="wGlS6vLJdemvs8XFUy1Y-32">
          <mxGeometry relative="1" as="geometry" />
        </mxCell>
        <mxCell id="wGlS6vLJdemvs8XFUy1Y-61" value="TO SNS" style="text;html=1;align=center;verticalAlign=middle;whiteSpace=wrap;rounded=0;" vertex="1" parent="1">
          <mxGeometry x="677" y="380" width="60" height="30" as="geometry" />
        </mxCell>
        <mxCell id="wGlS6vLJdemvs8XFUy1Y-73" value="" style="swimlane;startSize=0;" vertex="1" parent="1">
          <mxGeometry x="380" y="-90" width="120" height="120" as="geometry" />
        </mxCell>
        <mxCell id="wGlS6vLJdemvs8XFUy1Y-74" value="&lt;div&gt;Retry&lt;br&gt;Service&lt;/div&gt;" style="text;html=1;align=center;verticalAlign=middle;resizable=0;points=[];autosize=1;strokeColor=none;fillColor=none;" vertex="1" parent="wGlS6vLJdemvs8XFUy1Y-73">
          <mxGeometry x="15" y="20" width="60" height="40" as="geometry" />
        </mxCell>
        <mxCell id="wGlS6vLJdemvs8XFUy1Y-75" value="DB&lt;div&gt;&lt;br&gt;&lt;/div&gt;" style="shape=cylinder3;whiteSpace=wrap;html=1;boundedLbl=1;backgroundOutline=1;size=15;" vertex="1" parent="wGlS6vLJdemvs8XFUy1Y-73">
          <mxGeometry x="60" y="-60" width="60" height="80" as="geometry" />
        </mxCell>
        <mxCell id="wGlS6vLJdemvs8XFUy1Y-77" value="" style="curved=1;endArrow=classic;html=1;rounded=0;entryX=-0.025;entryY=0.45;entryDx=0;entryDy=0;entryPerimeter=0;" edge="1" parent="1" target="wGlS6vLJdemvs8XFUy1Y-73">
          <mxGeometry width="50" height="50" relative="1" as="geometry">
            <mxPoint x="170" y="190" as="sourcePoint" />
            <mxPoint x="460.5" y="-125" as="targetPoint" />
            <Array as="points">
              <mxPoint x="210.5" y="65" />
              <mxPoint x="160.5" y="15" />
            </Array>
          </mxGeometry>
        </mxCell>
        <mxCell id="wGlS6vLJdemvs8XFUy1Y-78" value="" style="curved=1;endArrow=classic;html=1;rounded=0;entryX=1.025;entryY=0.317;entryDx=0;entryDy=0;entryPerimeter=0;" edge="1" parent="1" target="wGlS6vLJdemvs8XFUy1Y-73">
          <mxGeometry width="50" height="50" relative="1" as="geometry">
            <mxPoint x="634.5" y="200" as="sourcePoint" />
            <mxPoint x="841.5" y="-26" as="targetPoint" />
            <Array as="points">
              <mxPoint x="675" y="75" />
              <mxPoint x="625" y="25" />
            </Array>
          </mxGeometry>
        </mxCell>
      </root>
    </mxGraphModel>
  </diagram>
</mxfile>
